  <svg width="213" height="70" viewBox="0 0 213 70" fill="none" xmlns="http://www.w3.org/2000/svg"><circle cx="34.885" cy="34.632" fill="#fff" r="32.958"></circle><path d="M212.08 44.612a8.308 8.308 0 01-.981.266c-.519.071-.708-.224-.697-.72.028-.7-.02-1.401-.141-2.091-.207.26-.426.52-.626.785-.331.437-.638.431-.957 0a2.421 2.421 0 00-.78-.726v1.937c0 .644-.207.839-.827.839s-.821-.266-.809-.857c.03-1.252 0-2.504 0-3.756 0-.307.124-.797.319-.874a1.087 1.087 0 011.335.343c.39.531.762 1.069 1.181 1.67.414-.59.762-1.103 1.146-1.6a1.183 1.183 0 011.772-.177l.065 4.961zM.001 34.944A35 35 0 1134.209 69.99C15.257 69.584-.14 53.867.002 34.944zm67.33.041a32.319 32.319 0 10-32.377 32.33 32.395 32.395 0 0032.377-32.33zm47.716 17.79c1.772 2.108 3.803 3.68 6.497 4.323 3.272.747 6.651.913 9.981.49 1.878-.206 2.516-.118 2.398 2.12v1.277c0 1.086-.449 1.689-1.53 1.771-2.776.136-5.557.296-8.327.178a23.437 23.437 0 01-5.475-.987c-2.812-.82-5.044-2.604-6.964-4.79-.638-.726-1.352-1.393-1.967-2.132a1.806 1.806 0 00-1.771-.762 9.852 9.852 0 01-1.258 0c0 .343-.048.591-.048.892v5.906c0 1.347-.496 1.82-1.848 1.825h-2.552c-1.151 0-1.683-.59-1.683-1.718V39.132c0-1.181.526-1.69 1.689-1.69 2.735 0 5.475-.053 8.21.036a16.58 16.58 0 013.762.59 6.928 6.928 0 015.256 6.497 14.417 14.417 0 01-.053 3.237 6.27 6.27 0 01-3.106 4.359c-.39.165-.786.372-1.211.614zm-6.373-3.29v-.041c.591 0 1.229.041 1.837 0 1.967-.16 3.266-1.347 3.396-3.06.13-1.819-.91-3.183-2.953-3.543a25.88 25.88 0 00-4.01-.172c-.136 0-.384.373-.384.591-.036 1.884 0 3.774 0 5.658 0 .42.124.59.561.59.437 0 1.045-.023 1.553-.023zm-14.959-.1a6.615 6.615 0 013.543 2.953c2.256 4.134.124 8.859-4.56 9.957-1.566.329-3.16.512-4.76.55-2.333.088-4.666 0-7.005 0-1.447 0-1.96-.508-1.96-1.955V39.356c0-1.477.49-1.979 1.937-1.961 2.829.035 5.67 0 8.481.195 1.449.155 2.865.531 4.2 1.116a4.878 4.878 0 013.1 4.229c.207 1.866 0 3.65-1.317 5.109-.517.49-1.072.938-1.66 1.34zm-8.635 8.534c1.258 0 2.433.047 3.602 0a7.978 7.978 0 002.068-.413 2.28 2.28 0 001.677-2.416 2.404 2.404 0 00-1.802-2.493c-1.807-.59-3.667-.277-5.545-.336v5.658zm-.03-15.681v5.192a.591.591 0 00.42.395 21.69 21.69 0 003.035-.112 2.564 2.564 0 002.333-2.593 2.416 2.416 0 00-2.244-2.657 32.287 32.287 0 00-3.544-.225zm8.576-21.505c2.05.821 3.544 2.085 4.093 4.135.969 3.691-.053 7.932-5.676 8.912a37.28 37.28 0 01-5.221.413c-2.026.066-4.058 0-6.083 0-1.24 0-1.772-.52-1.772-1.771V10.468c0-1.18.59-1.771 1.742-1.724 2.83 0 5.664 0 8.487.153 2.227.13 4.347.71 6.078 2.322 2.161 2.008 2.12 7.618-1.252 9.23-.139.086-.271.18-.396.284zM85.05 29.47c1.831-.142 3.544-.16 5.239-.431a2.362 2.362 0 002.144-2.523c0-1.44-.662-2.362-2.168-2.616a41.51 41.51 0 00-4.855-.26c-.118 0-.348.254-.354.39-.006 1.725-.006 3.443-.006 5.44zm0-15.817v5.185c0 .136.242.39.366.384a20.296 20.296 0 003.503-.236c1.358-.283 1.984-1.346 1.92-2.746a2.327 2.327 0 00-2.115-2.363c-1.17-.212-2.374-.183-3.674-.254v.03zm57.597 32.731v14.618c0 1.376-.443 1.825-1.813 1.837h-2.623c-1.181 0-1.641-.455-1.641-1.63V39.037c0-1.134.531-1.542 1.653-1.66a5.99 5.99 0 015.599 2.25c1.802 2.091 3.875 3.94 5.818 5.906.17.197.322.409.455.632l.201-.118c0-.189.053-.384.053-.59v-6.16c0-1.495.407-1.902 1.878-1.902h2.126c1.731 0 2.085.354 2.085 2.055v21.6c0 1.305-.478 1.772-1.772 1.772h-2.41c-1.423 0-1.872-.443-1.878-1.855V54.47a1.286 1.286 0 00-.283-.809c-2.363-2.362-4.725-4.725-7.117-7.087-.095-.065-.166-.089-.331-.189zm-19.898-24.936V10.752c0-1.518.473-1.99 1.996-1.972 2.451 0 4.914-.071 7.353.147a11.64 11.64 0 0110.248 9.45c.59 3.296.537 6.562-1.075 9.592a11.074 11.074 0 01-9.255 6.107c-2.552.218-5.139.118-7.708.124-1.039 0-1.547-.59-1.553-1.772v-6.656l-.006-4.324zm6.16 7.477h1.772a5.741 5.741 0 005.392-4.08 9.947 9.947 0 00-.059-6.598 6.06 6.06 0 00-7.087-4.057l-.018 14.736zm53.291-4.713h-8.375v8.357c0 1.182-.431 1.625-1.612 1.636h-2.829c-1.14 0-1.607-.466-1.613-1.582V10.374c0-1.128.479-1.595 1.595-1.6h2.906c1.093 0 1.553.466 1.553 1.553v7.932c0 .59.166.726.721.714h6.934c.59 0 .75-.2.744-.767-.03-2.552 0-5.103 0-7.678 0-1.412.378-1.772 1.813-1.772h2.693a1.4 1.4 0 011.548 1.535v22.314a1.404 1.404 0 01-.913 1.515 1.4 1.4 0 01-.629.074c-1.039.03-2.079.03-3.112 0a1.29 1.29 0 01-1.424-1.471v-8.511zm-36.954-2.782V10.8c0-1.572.455-2.044 2.008-2.027 2.428 0 4.873-.077 7.283.136a11.662 11.662 0 0110.335 9.592c.591 3.378.467 6.71-1.275 9.763a11.09 11.09 0 01-9.167 5.811c-2.51.201-5.044.112-7.566.118-1.069 0-1.612-.59-1.618-1.712V21.43zm6.137-7.258v14.765c.649 0 1.264.041 1.866 0 2.469-.207 4.288-1.388 5.174-3.75a9.746 9.746 0 00-.183-7.53 6.062 6.062 0 00-6.857-3.486zm8.593 35.968V39.35c0-1.477.478-1.955 1.937-1.955 2.079 0 4.134-.036 6.231 0a11.92 11.92 0 0111.641 10.92 14.714 14.714 0 01-.75 7.034c-1.813 4.495-5.245 6.946-10.04 7.365-2.416.207-4.855.113-7.283.119-1.216 0-1.772-.591-1.772-1.808.02-3.63.032-7.258.036-10.885zm6.089 7.424h1.802a5.804 5.804 0 005.451-4.181 10.71 10.71 0 00.378-4.406c-.313-3.904-2.953-6.296-6.792-6.314-.703 0-.857.224-.857.886.03 4.388 0 8.776 0 13.165l.018.85zm-65.742-39.187v-7.932c0-1.181.508-1.666 1.69-1.672h2.687c1.181 0 1.689.514 1.695 1.684v14.24c.026.915.212 1.818.549 2.67.455 1.18 1.471 1.641 2.711 1.682 1.335.048 2.499-.336 3.03-1.618a8 8 0 00.591-2.876c.059-4.601 0-9.208 0-13.809 0-1.56.413-1.973 1.966-1.973h2.41c1.181 0 1.707.526 1.713 1.737v5.245c0 3.183.035 6.372 0 9.562a17.09 17.09 0 01-.378 3.29 6.72 6.72 0 01-5.316 5.439c-2.55.644-5.221.644-7.772 0-3.201-.797-5.127-3.036-5.428-6.538-.207-2.44-.13-4.902-.177-7.353.018-.597.029-1.188.029-1.778zm90.613 18.61c1.783.056 3.541.439 5.186 1.128a6.794 6.794 0 014.022 5.316c.213 1.223-.136 1.719-1.341 1.949a69.64 69.64 0 01-3.136.508c-.632.089-.998-.148-1.098-.856-.396-2.788-3.893-3.326-5.529-2.257a2.107 2.107 0 00-.733 2.773c.165.311.405.576.698.771.818.469 1.676.864 2.563 1.181 1.654.68 3.384 1.181 4.961 2.02 3.331 1.772 4.389 4.955 3.633 8.334a5.823 5.823 0 01-3.792 4.347 14.57 14.57 0 01-9.45.401c-2.823-.844-4.483-2.852-5.02-5.752-.195-1.04.147-1.512 1.181-1.719a58.083 58.083 0 012.994-.52c1.004-.147 1.211.071 1.382 1.004a2.75 2.75 0 001.772 2.067 4.908 4.908 0 003.396.119 2.177 2.177 0 001.619-2.02 1.895 1.895 0 00-1.247-2.097c-1.181-.508-2.427-.88-3.644-1.317-.998-.36-2.02-.656-2.982-1.087-3.39-1.523-4.583-3.969-4.383-7.194a7.134 7.134 0 015.475-6.544 34.116 34.116 0 013.473-.555zm12.273-7.258h-5.835l-.621 2.746c-.289 1.317-.809 1.73-2.161 1.73h-2.9c-.963 0-1.471-.59-1.181-1.576a9142.52 9142.52 0 016.437-22.414 1.773 1.773 0 011.92-1.418h2.906c1.24 0 1.772.384 2.091 1.571 1.925 6.694 3.852 13.388 5.782 20.082l.59 2.037c.337 1.181-.047 1.719-1.264 1.725h-2.905a1.98 1.98 0 01-2.162-1.719c-.207-.874-.396-1.772-.591-2.622-.017-.042-.059-.077-.106-.142zm-2.823-12.911h-.183l-1.938 8.782h4.105c-.673-2.976-1.329-5.876-1.984-8.782z" fill="#002D72"></path><path d="M132.299 55.125h-.591c-1.458 0-1.86-.26-2.161-1.683a1.017 1.017 0 00-1.276-.94 27.35 27.35 0 01-3.113 0c-.59 0-.88.136-.939.739a3.04 3.04 0 01-.218.809 1.564 1.564 0 01-1.512 1.087h-1.979c-1.116 0-1.488-.49-1.181-1.577.656-2.262 1.329-4.519 1.996-6.775l2.268-7.678c.396-1.329.916-1.712 2.298-1.712h2.049c1.211 0 1.772.407 2.109 1.576 1.228 4.127 2.453 8.261 3.673 12.403.207.697.42 1.4.621 2.103.33 1.181-.042 1.648-1.235 1.654l-.809-.006zm-5.316-11.919h-.159c-.484 1.867-.975 3.733-1.465 5.629h3.024l-1.4-5.629zm77.467-2.433v3.242c0 .591-.172.892-.845.886-.673-.005-.774-.336-.768-.886v-3.224c-.26 0-.46-.06-.661-.06-.496 0-.721-.236-.715-.75.006-.513.278-.637.721-.637h2.894c.454 0 .72.142.732.632.012.49-.195.756-.703.756-.159 0-.36.023-.655.041zM41.876 51.758a8.41 8.41 0 01-3.822-1.305 5.588 5.588 0 00-6.207 0 8.221 8.221 0 01-8.611.165c-.94-.502-1.235-1.276-.827-2.032.407-.755 1.21-.927 2.144-.407a5.527 5.527 0 005.953-.142 8.128 8.128 0 018.86-.041c2.084 1.228 4.134 1.335 6.219.106a1.378 1.378 0 011.972.437 1.41 1.41 0 01-.59 1.95 9.166 9.166 0 01-5.091 1.27zM23.625 26.516a9.586 9.586 0 00-5.994 2.185c-.98.786-1.772.845-2.363.166-.59-.68-.401-1.495.62-2.327a12.598 12.598 0 0115.947.112 1.847 1.847 0 01.744 1.772c-.307 2.433-.59 4.872-.88 7.306a1.329 1.329 0 01-1.559 1.18 1.37 1.37 0 01-1.181-1.647c.23-1.99.449-3.987.726-5.971a1.093 1.093 0 00-.59-1.223 9.644 9.644 0 00-5.47-1.553zm22.538-2.753a12.356 12.356 0 018.086 2.918c.827.68.975 1.541.431 2.203a1.588 1.588 0 01-2.209-.047 9.68 9.68 0 00-11.523-.81 1.281 1.281 0 00-.673 1.442c.272 1.913.478 3.839.691 5.758.106.969-.354 1.613-1.181 1.701-.827.089-1.394-.372-1.524-1.347-.307-2.433-.59-4.872-.886-7.306a1.624 1.624 0 01.667-1.541 12.344 12.344 0 018.121-2.97zm-11.156 20.33H29.91c-2.162 0-3.75-1.252-4.134-3.23a2.876 2.876 0 01.064-1.383 1.18 1.18 0 011.365-.78 1.305 1.305 0 011.21 1.105c.337 1.382.544 1.553 1.956 1.553h9.45c1.228 0 1.565-.295 1.771-1.512a1.37 1.37 0 011.53-1.181 1.411 1.411 0 011.175 1.518 3.933 3.933 0 01-3.543 3.839c-1.908.106-3.822 0-5.735 0l-.012.07zM23.761 19.848c-2.274.07-4.51.607-6.567 1.576a1.978 1.978 0 01-1.465.09 1.719 1.719 0 01-.75-1.182 1.241 1.241 0 01.803-1.288 16.826 16.826 0 015.64-1.772 17.276 17.276 0 0110.112 1.684c.443.237.799.61 1.016 1.063a1.14 1.14 0 01-.443 1.382 1.563 1.563 0 01-1.607.112c-1.346-.484-2.693-.986-4.075-1.353a17.283 17.283 0 00-2.664-.313zm22.107-2.705a17.64 17.64 0 018.121 1.842c.417.234.747.596.94 1.034a1.18 1.18 0 01-.444 1.388 1.376 1.376 0 01-1.53.124 15.484 15.484 0 00-4.836-1.512 15.16 15.16 0 00-8.547 1.406c-.406.22-.883.273-1.329.147a1.89 1.89 0 01-.874-1.145 1.229 1.229 0 01.792-1.359 16.873 16.873 0 015.906-1.772c.726-.094 1.411-.124 1.801-.153zM35.042 54.417h5.02c1.022 0 1.607.514 1.607 1.376 0 .862-.59 1.388-1.6 1.388H29.944c-1.028 0-1.618-.496-1.636-1.346-.018-.851.59-1.412 1.636-1.418h5.097zm1.642-39.873a1.676 1.676 0 01-1.695 1.695 1.678 1.678 0 01-.041-3.355 1.69 1.69 0 011.736 1.66z" fill="#002D72"></path></svg>